<svg xmlns="http://www.w3.org/2000/svg" viewBox="0 0 764 914">
  <path fill="#000" d="M23.00,888.50 L23.00,877.00 L59.00,877.00 C78.80,877.00 95.00,876.63 95.00,876.18 C95.00,875.72 91.29,872.70 86.75,869.46 C76.00,861.77 59.00,844.75 51.22,833.88 C38.61,816.26 28.58,793.78 23.39,771.50 C20.76,760.24 20.59,758.07 20.54,736.50 C20.50,716.05 20.76,712.28 22.85,702.50 C30.77,665.38 50.14,632.77 78.34,609.10 C117.54,576.19 169.77,564.33 218.97,577.17 C225.31,578.83 231.40,580.38 232.50,580.63 C234.26,581.02 235.74,578.14 244.92,556.29 C250.65,542.65 256.82,528.12 258.64,524.00 C262.33,515.60 293.33,443.34 301.53,424.00 C308.34,407.94 318.64,383.86 323.35,373.00 C325.37,368.32 336.18,343.12 347.38,317.00 L367.73,269.50 L548.86,269.25 L730.00,268.99 L730.00,280.50 L730.00,292.00 L574.50,292.00 C480.21,292.00 419.00,292.36 419.00,292.92 C419.00,293.43 421.52,299.62 424.60,306.67 C427.68,313.73 441.65,346.27 455.65,379.00 C469.65,411.73 487.59,453.57 495.52,472.00 C503.45,490.43 516.39,520.58 524.26,539.00 L538.58,572.50 L620.79,572.76 L703.00,573.01 L703.00,584.51 L703.00,596.00 L626.00,596.00 C583.65,596.00 549.00,596.20 549.00,596.45 C549.00,596.69 552.64,605.36 557.08,615.70 C561.52,626.04 573.73,654.52 584.20,679.00 C622.35,768.16 627.24,779.57 629.00,783.50 C629.98,785.70 634.71,796.73 639.51,808.00 C644.32,819.27 652.88,839.30 658.54,852.50 L668.84,876.50 L705.42,876.76 L742.00,877.02 L742.00,888.52 L742.00,900.01 L653.28,899.76 L564.56,899.50 L560.88,891.00 C558.85,886.33 549.45,863.83 540.00,841.00 C503.67,753.31 493.58,729.01 487.47,714.50 C484.00,706.25 477.25,690.05 472.48,678.50 C467.71,666.95 461.16,651.20 457.91,643.50 C454.67,635.80 448.93,622.08 445.16,613.00 L438.30,596.50 L352.95,596.24 C306.02,596.10 267.26,596.34 266.83,596.77 C266.41,597.19 269.98,600.53 274.78,604.19 C283.45,610.80 298.00,624.85 304.09,632.50 C316.95,648.64 327.57,669.43 333.36,689.81 C338.65,708.43 339.39,714.20 339.35,736.50 C339.32,755.22 339.03,758.86 336.69,770.06 C321.89,840.92 270.96,889.90 202.68,898.96 C197.79,899.61 162.64,900.00 108.93,900.00 L23.00,900.00 L23.00,888.50 Z M205.41,872.02 C231.04,866.75 253.30,855.14 272.12,837.23 C300.01,810.68 315.00,775.31 315.00,736.03 C315.00,717.76 312.50,703.73 306.26,687.00 C298.89,667.26 289.38,652.39 274.53,637.42 C264.64,627.44 247.26,614.26 245.96,615.74 C245.33,616.45 220.20,677.04 177.81,780.00 C167.96,803.92 157.26,829.80 154.04,837.50 C144.76,859.70 141.72,868.12 142.64,869.03 C143.11,869.50 147.78,870.77 153.00,871.84 C166.63,874.66 192.16,874.74 205.41,872.02 Z M120.42,847.74 C122.57,842.66 130.48,823.88 138.00,806.00 C145.52,788.12 161.24,751.23 172.94,724.00 C184.64,696.77 195.03,672.48 196.05,670.00 C197.06,667.52 203.72,652.01 210.85,635.51 C217.99,619.02 223.64,605.23 223.42,604.88 C222.74,603.78 207.09,599.87 197.54,598.41 C155.23,591.97 108.29,609.74 79.17,643.21 C62.88,661.94 52.26,683.48 46.89,708.69 C43.84,723.02 43.88,749.48 46.98,763.50 C53.44,792.69 65.20,814.47 85.37,834.60 C95.92,845.13 111.64,857.01 114.99,856.99 C115.94,856.98 117.95,853.56 120.42,847.74 Z M428.00,572.69 C428.00,572.36 417.33,546.91 401.50,509.50 C396.15,496.85 390.76,484.02 389.52,481.00 C388.28,477.98 382.88,465.15 377.50,452.50 C372.13,439.85 363.57,419.55 358.47,407.40 C353.37,395.24 348.41,383.77 347.45,381.90 C345.85,378.82 345.62,378.69 344.89,380.51 C344.44,381.60 340.06,391.95 335.15,403.50 C330.24,415.05 320.04,439.12 312.48,457.00 C304.92,474.88 292.76,503.45 285.48,520.50 C271.03,554.29 264.00,571.26 264.00,572.32 C264.00,572.69 300.90,573.00 346.00,573.00 C391.10,573.00 428.00,572.86 428.00,572.69 Z M370.98,209.01 C338.83,203.87 308.31,178.35 296.96,147.12 C292.60,135.11 291.00,125.73 291.00,112.16 C291.00,89.10 296.92,70.66 309.91,53.26 C329.76,26.65 358.93,12.64 391.00,14.30 C432.87,16.47 467.90,45.78 479.08,88.00 C482.24,99.94 482.32,123.68 479.24,135.58 C469.92,171.60 444.46,197.74 409.50,207.17 C401.42,209.35 379.62,210.40 370.98,209.01 Z M404.38,185.03 C441.92,175.43 466.34,135.74 458.42,97.21 C452.79,69.82 433.76,48.31 407.91,40.09 C375.22,29.70 339.21,44.36 322.18,75.00 C315.70,86.67 312.64,98.51 312.64,112.00 C312.64,145.65 334.33,175.06 366.00,184.39 C377.18,187.68 392.98,187.95 404.38,185.03 Z" fill-rule="evenodd"/>
</svg>
